<svg width="15" height="15" viewBox="0 0 15 15" fill="none" xmlns="http://www.w3.org/2000/svg">
<path d="M10.1472 6.1785L13.466 2.85951L12.1401 1.5335L8.8212 4.8525C8.67971 4.99449 8.43722 4.89399 8.43722 4.6935V0H6.56227V5.6625C6.56227 6.15951 6.1593 6.5625 5.66231 6.5625H0V8.4375H4.69335C4.89384 8.4375 4.99433 8.67999 4.85233 8.8215L1.53395 12.1405L2.8599 13.4665L6.1788 10.1475C6.32029 10.006 6.56278 10.106 6.56278 10.3065V15H8.43773V9.3375C8.43773 8.84049 8.8407 8.4375 9.33769 8.4375H15V6.5625H10.3067C10.1062 6.5625 10.0057 6.32001 10.1477 6.1785H10.1472Z" fill="black"/>
</svg>
